<?xml version="1.0" encoding="utf-8"?>
<!-- Generator: Adobe Illustrator 16.0.0, SVG Export Plug-In . SVG Version: 6.00 Build 0)  -->
<!DOCTYPE svg PUBLIC "-//W3C//DTD SVG 1.0//EN" "http://www.w3.org/TR/2001/REC-SVG-20010904/DTD/svg10.dtd">
<svg version="1.0" id="Layer_1" xmlns="http://www.w3.org/2000/svg" xmlns:xlink="http://www.w3.org/1999/xlink" x="0px" y="0px"
	 width="26px" height="12px" viewBox="0 0 26 12" enable-background="new 0 0 26 12" xml:space="preserve">
<g>
	<path fill="#25996A" d="M23,3c-1.304,0-2.402,0.837-2.816,2H17v2h3.184C20.597,8.163,21.696,9,23,9c1.656,0,3-1.343,3-3
		C26,4.343,24.656,3,23,3z"/>
	<path fill="#25996A" d="M3,3C1.344,3,0,4.343,0,6c0,1.657,1.344,3,3,3c1.304,0,2.403-0.837,2.816-2H9V5H5.816
		C5.403,3.837,4.304,3,3,3z M3,8C1.897,8,1,7.103,1,6c0-1.103,0.897-2,2-2s2,0.897,2,2C5,7.103,4.103,8,3,8z"/>
	<rect x="11" y="5" fill="#25996A" width="4" height="2"/>
</g>
</svg>
