<?xml version="1.0" encoding="utf-8"?>
<!-- Generator: Adobe Illustrator 16.0.0, SVG Export Plug-In . SVG Version: 6.00 Build 0)  -->
<!DOCTYPE svg PUBLIC "-//W3C//DTD SVG 1.0//EN" "http://www.w3.org/TR/2001/REC-SVG-20010904/DTD/svg10.dtd">
<svg version="1.0" id="Layer_1" xmlns="http://www.w3.org/2000/svg" xmlns:xlink="http://www.w3.org/1999/xlink" x="0px" y="0px"
	 width="86px" height="72px" viewBox="0 0 86 72" enable-background="new 0 0 86 72" xml:space="preserve">
<g>
	<path fill="#87E43F" d="M25.464,55.246c-1.89,0-3.365-0.58-4.427-1.738c-1.061-1.16-1.593-2.652-1.593-4.48v-0.467
		c0-1.898,0.516-3.451,1.546-4.662c1.031-1.209,2.447-1.811,4.252-1.803c1.702,0,3.007,0.521,3.916,1.562
		c0.91,1.043,1.365,2.445,1.365,4.209v1.77h-7.554l-0.035,0.07c0.055,0.867,0.319,1.568,0.791,2.107
		c0.473,0.539,1.174,0.81,2.102,0.81c0.765,0,1.416-0.079,1.95-0.235c0.536-0.156,1.088-0.395,1.657-0.715l0.926,2.108
		c-0.508,0.414-1.195,0.763-2.061,1.044C27.431,55.105,26.487,55.246,25.464,55.246z M25.243,44.729
		c-0.688,0-1.216,0.237-1.588,0.709c-0.37,0.473-0.595,1.099-0.673,1.88l0.023,0.059h4.169v-0.258c0-0.74-0.152-1.326-0.458-1.752
		C26.414,44.943,25.92,44.729,25.243,44.729z"/>
	<path fill="#87E43F" d="M39.176,45.27l-1.254-0.035c-0.507,0-0.924,0.104-1.252,0.316c-0.328,0.209-0.577,0.506-0.749,0.89V55
		h-3.409V42.329h3.174l0.151,1.874c0.297-0.664,0.683-1.181,1.154-1.552c0.473-0.37,1.017-0.556,1.633-0.556
		c0.172,0,0.331,0.014,0.475,0.041c0.146,0.027,0.29,0.061,0.438,0.1L39.176,45.27z"/>
	<path fill="#87E43F" d="M40.408,48.771c0-1.999,0.431-3.61,1.293-4.837c0.863-1.225,2.08-1.838,3.649-1.838
		c0.631,0,1.201,0.135,1.708,0.41c0.507,0.271,0.952,0.662,1.335,1.172V37h3.43v18h-2.914l-0.293-1.559
		c-0.398,0.587-0.871,1.034-1.417,1.342c-0.546,0.309-1.171,0.463-1.872,0.463c-1.554,0-2.762-0.57-3.625-1.711
		c-0.862-1.139-1.293-2.645-1.293-4.519V48.771z M43.814,49.017c0,1.108,0.188,1.979,0.562,2.617
		c0.374,0.636,0.982,0.954,1.825,0.954c0.493,0,0.921-0.1,1.29-0.299c0.365-0.199,0.666-0.49,0.9-0.871v-5.399
		c-0.234-0.399-0.531-0.708-0.895-0.931c-0.362-0.223-0.787-0.334-1.271-0.334c-0.836,0-1.445,0.371-1.832,1.112
		s-0.58,1.71-0.58,2.904V49.017z"/>
	<path fill="#87E43F" d="M59.764,55.246c-1.889,0-3.367-0.58-4.428-1.738c-1.062-1.16-1.593-2.652-1.593-4.48v-0.467
		c0-1.898,0.515-3.451,1.546-4.662c1.03-1.209,2.448-1.811,4.252-1.803c1.701,0,3.006,0.521,3.914,1.562
		c0.91,1.043,1.367,2.445,1.367,4.209v1.77H57.27l-0.035,0.07c0.053,0.867,0.314,1.568,0.787,2.107s1.176,0.81,2.105,0.81
		c0.765,0,1.412-0.079,1.948-0.235c0.533-0.156,1.088-0.395,1.657-0.715l0.924,2.108c-0.504,0.414-1.192,0.763-2.06,1.044
		C61.731,55.105,60.785,55.246,59.764,55.246z M59.541,44.729c-0.688,0-1.218,0.237-1.588,0.709
		c-0.371,0.473-0.594,1.099-0.672,1.88l0.021,0.059h4.169v-0.258c0-0.74-0.151-1.326-0.456-1.752
		C60.711,44.943,60.22,44.729,59.541,44.729z"/>
	<path fill="#87E43F" d="M17.516,42.166c-0.246-0.047-0.512-0.07-0.801-0.07c-1.233,0-2.16,0.311-2.776,0.93
		c-0.617,0.622-1.104,1.385-1.463,2.291l-0.601,1.703l1.704,4.828l1.789-5.607c0.164-0.414,0.398-0.758,0.703-1.036
		c0.305-0.276,0.739-0.415,1.301-0.415c0.094,0,0.198,0.008,0.315,0.023c0.117,0.016,0.226,0.031,0.328,0.047l0.398-2.493
		C18.06,42.279,17.762,42.213,17.516,42.166z"/>
</g>
<g>
	<path fill="#EDF9DD" d="M29.703,35.015c-0.125-0.289-0.232-0.594-0.321-0.914c-0.091-0.32-0.155-0.648-0.194-0.983
		c-0.351,0.617-0.816,1.129-1.394,1.535c-0.578,0.406-1.265,0.609-2.061,0.609c-1.328,0-2.348-0.342-3.067-1.026
		c-0.718-0.682-1.077-1.613-1.077-2.793c0-1.24,0.478-2.204,1.433-2.885c0.957-0.684,2.352-1.024,4.188-1.024h1.92v-1.008
		c0-0.609-0.161-1.081-0.481-1.417c-0.32-0.335-0.796-0.504-1.429-0.504c-0.554,0-0.982,0.136-1.282,0.405
		c-0.301,0.27-0.451,0.638-0.451,1.106h-3.29l-0.024-0.07c-0.053-1.069,0.412-1.992,1.4-2.77c0.987-0.776,2.278-1.165,3.871-1.165
		c1.521,0,2.752,0.382,3.694,1.147c0.94,0.766,1.411,1.861,1.411,3.292v5.234c0,0.593,0.044,1.152,0.134,1.673
		c0.089,0.525,0.231,1.043,0.428,1.559H29.703z M26.576,32.732c0.594,0,1.124-0.149,1.593-0.446c0.468-0.297,0.791-0.64,0.962-1.031
		v-1.791h-1.92c-0.728,0-1.276,0.18-1.646,0.539c-0.372,0.359-0.556,0.8-0.556,1.324c0,0.428,0.137,0.77,0.415,1.024
		C25.7,32.604,26.086,32.732,26.576,32.732z"/>
	<path fill="#EDF9DD" d="M34.585,28.785c0-1.999,0.433-3.61,1.295-4.837c0.863-1.225,2.078-1.838,3.649-1.838
		c0.63,0,1.202,0.136,1.708,0.411c0.508,0.272,0.952,0.662,1.336,1.171v-6.677h3.43v18h-2.915l-0.294-1.559
		c-0.398,0.587-0.871,1.034-1.417,1.342c-0.547,0.309-1.171,0.463-1.874,0.463c-1.552,0-2.76-0.571-3.624-1.711
		c-0.862-1.14-1.295-2.645-1.295-4.519V28.785z M37.994,29.031c0,1.109,0.187,1.98,0.562,2.617c0.375,0.635,0.983,0.954,1.827,0.954
		c0.492,0,0.921-0.1,1.288-0.298c0.367-0.2,0.668-0.49,0.903-0.873v-5.398c-0.235-0.399-0.535-0.708-0.896-0.932
		c-0.364-0.221-0.788-0.332-1.271-0.332c-0.835,0-1.445,0.37-1.832,1.112c-0.386,0.741-0.58,1.709-0.58,2.904V29.031z"/>
	<path fill="#EDF9DD" d="M48.123,28.563c0-1.89,0.527-3.438,1.581-4.643c1.054-1.208,2.514-1.81,4.38-1.81
		c1.873,0,3.342,0.602,4.402,1.803c1.062,1.203,1.593,2.752,1.593,4.65v0.246c0,1.905-0.528,3.457-1.586,4.654
		c-1.058,1.199-2.521,1.798-4.386,1.798c-1.874,0-3.34-0.6-4.396-1.798c-1.059-1.198-1.588-2.75-1.588-4.654V28.563z M51.531,28.809
		c0,1.155,0.203,2.082,0.609,2.781c0.404,0.699,1.062,1.049,1.967,1.049c0.881,0,1.528-0.353,1.938-1.056
		c0.41-0.703,0.615-1.627,0.615-2.774v-0.246c0-1.124-0.207-2.042-0.622-2.752c-0.411-0.71-1.065-1.066-1.954-1.066
		c-0.882,0-1.529,0.357-1.938,1.072c-0.411,0.713-0.615,1.629-0.615,2.747V28.809z"/>
	<path fill="#EDF9DD" d="M66.59,30.296l0.223,1.17h0.071l0.233-1.17l2.084-7.952h3.572l-4.31,12.671h-3.267l-4.31-12.671h3.571
		L66.59,30.296z"/>
	<path fill="#EDF9DD" d="M81.557,35.015c-0.126-0.289-0.233-0.594-0.322-0.914c-0.091-0.32-0.154-0.648-0.193-0.983
		c-0.352,0.617-0.816,1.129-1.395,1.535c-0.578,0.406-1.266,0.609-2.062,0.609c-1.327,0-2.349-0.342-3.065-1.026
		c-0.719-0.682-1.078-1.613-1.078-2.793c0-1.24,0.479-2.204,1.434-2.885c0.957-0.684,2.352-1.024,4.188-1.024h1.92v-1.008
		c0-0.609-0.16-1.081-0.48-1.417c-0.32-0.335-0.797-0.504-1.43-0.504c-0.553,0-0.98,0.136-1.281,0.405
		c-0.301,0.27-0.451,0.638-0.451,1.106h-3.289l-0.025-0.07c-0.053-1.069,0.412-1.992,1.4-2.77c0.986-0.776,2.279-1.165,3.871-1.165
		c1.521,0,2.753,0.382,3.693,1.147c0.939,0.766,1.412,1.861,1.412,3.292v5.234c0,0.593,0.043,1.152,0.135,1.673
		c0.089,0.525,0.23,1.043,0.428,1.559H81.557z M78.428,32.732c0.594,0,1.125-0.149,1.593-0.446c0.47-0.297,0.79-0.64,0.962-1.031
		v-1.791h-1.92c-0.728,0-1.275,0.18-1.646,0.539c-0.371,0.359-0.556,0.8-0.556,1.324c0,0.428,0.138,0.77,0.415,1.024
		C77.553,32.604,77.938,32.732,78.428,32.732z"/>
	<path fill="#EDF9DD" d="M9.058,55l-2.796-8.76c-0.165-0.414-0.398-0.758-0.703-1.036c-0.305-0.276-0.739-0.415-1.301-0.415
		c-0.094,0-0.198,0.008-0.315,0.023s-0.227,0.031-0.328,0.047l-0.399-2.493c0.352-0.087,0.65-0.153,0.896-0.2
		c0.246-0.047,0.513-0.07,0.802-0.07c1.233,0,2.159,0.311,2.776,0.93c0.617,0.622,1.104,1.385,1.463,2.291L12.57,55H9.058z"/>
	<path fill="#EDF9DD" d="M18.825,23.948c-0.866-1.225-2.084-1.838-3.654-1.838c-0.178,0-0.333,0.038-0.5,0.058
		c-0.092,0.308-0.201,0.615-0.256,0.926c-0.088,0.523-0.134,1.082-0.134,1.675c0.82,0,1.429,0.37,1.827,1.112
		c0.398,0.741,0.598,1.709,0.598,2.904v0.246c0,1.109-0.194,1.987-0.581,2.634c-0.386,0.648-0.993,0.973-1.82,0.973
		c-0.531,0-0.978-0.094-1.341-0.281c-0.362-0.188-0.649-0.462-0.86-0.822v-9.191H9.058v19.234c0.015,0.013,0.034,0.023,0.05,0.039
		c0.698,0.703,1.247,1.576,1.702,2.585c0.348-0.771,0.784-1.456,1.294-2.065v-8.328c0.367,0.475,0.809,0.837,1.324,1.082
		c0.516,0.247,1.104,0.37,1.768,0.37c1.553,0,2.764-0.571,3.63-1.711c0.867-1.14,1.3-2.645,1.3-4.519v-0.246
		C20.125,26.786,19.692,25.175,18.825,23.948z"/>
	<path fill="#EDF9DD" d="M6.879,32.635c-0.01,0-0.014,0.003-0.023,0.003c-0.828,0-1.436-0.325-1.82-0.973
		c-0.388-0.647-0.581-1.525-0.581-2.634v-0.246c0-1.195,0.2-2.163,0.598-2.904c0.398-0.742,1.007-1.112,1.827-1.112
		c0-0.593-0.045-1.152-0.134-1.675c-0.055-0.311-0.164-0.618-0.255-0.926c-0.167-0.021-0.323-0.058-0.501-0.058
		c-1.569,0-2.787,0.614-3.653,1.838c-0.867,1.227-1.301,2.838-1.301,4.837v0.246c0,1.874,0.434,3.379,1.301,4.519
		s2.077,1.711,3.63,1.711c0.323,0,0.625-0.031,0.914-0.09V32.635z"/>
</g>
</svg>
